<svg xmlns="http://www.w3.org/2000/svg" xmlns:xlink="http://www.w3.org/1999/xlink" id="icona" x="0px" y="0px" viewBox="0 0 128 128" style="enable-background:new 0 0 128 128;" xml:space="preserve"><style type="text/css">	.st0{fill:#FFFFFF;}</style><path class="st0" d="M64,13.6l-41.5,9.1l0.1,39.7c0,24.8,17.2,46.4,41.4,51.9l0,0c24.2-5.6,41.4-27.1,41.4-51.9l0.1-39.7 C105.5,22.8,64,13.6,64,13.6z M84.9,49.2L64,77.6c-0.5,0.7-1.2,1.1-2,1.2c-0.1,0-0.3,0-0.4,0c-0.7,0-1.3-0.2-1.9-0.7L46.9,67.8 c-1.3-1-1.5-2.9-0.5-4.2c1-1.3,2.9-1.5,4.2-0.5L61,71.5l19-25.8c1-1.3,2.9-1.6,4.2-0.6S85.8,47.9,84.9,49.2L84.9,49.2z"></path></svg>