<svg xmlns="http://www.w3.org/2000/svg" xmlns:xlink="http://www.w3.org/1999/xlink" id="icona" x="0px" y="0px" viewBox="0 0 128 128" style="enable-background:new 0 0 128 128;" xml:space="preserve"><style type="text/css">	.st0{fill:#FFFFFF;}</style><path class="st0" d="M120.9,58.8l-15.4-15.4v-13c0-8.9-7.2-16.1-16.1-16.1h-36L22.5,45.1v52.6c0,8.9,7.2,16.1,16.1,16.1h50.7 c8.9,0,16.1-7.2,16.1-16.1V78.4L120.9,63C122.1,61.8,122.1,59.9,120.9,58.8z M55.7,20.4v24.7H31L55.7,20.4z M78.9,96.5l-13,0.7 l0.7-13l35.7-35.7l12.3,12.4C114.5,60.9,78.9,96.5,78.9,96.5z"></path></svg>